<svg xmlns="http://www.w3.org/2000/svg" width="120" height="120" viewBox="0 0 120 120" xmlns:v="https://vecta.io/nano"><path d="M93.84 12.066L96 14v2l1.758.73c8.765 4.963 14.079 16.924 16.802 26.17 4.16 15.955 2.877 32.161-5.013 46.795-1.418 2.202-2.917 4.255-4.547 6.305l-1.363 1.816C95.162 108.487 83.408 115.576 70 118c-15.419 1.48-30.422-.284-43-10C13.106 96.113 4.901 82.477 3.125 63.938 2.331 45.997 8.86 31.824 20.246 18.34 39.457-2.575 71.254-4.368 93.84 12.066zM35 13l2.813 3.813 1.582 2.145c1.457 1.854 2.8 3.527 4.605 5.043 3.071.405 3.071.405 6-1 1.06-1.998 1.679-3.906 2.262-6.09C53 15 53 15 56 13c5.264-.167 5.264-.167 8 1 1.282 1.966 2.066 3.945 2.945 6.117 1.035 2.283 1.035 2.283 4.492 3.445 3.42.42 5.319.445 8.563-.562 2.083-1.814 2.083-1.814 3.813-4.062l1.832-2.223L87 15c-2.445-2.806-4.996-4.116-8.375-5.625l-2.836-1.289C62.599 2.95 46.727 5.504 35 13zm-11.586 8.539C12.908 32.249 7.716 47.122 7.683 61.917c.295 15.149 6.98 27.077 17.059 37.943 2.898 2.748 5.653 4.453 9.258 6.141 1.344-3.945 1.344-3.945 2-8-1.61-2.93-1.61-2.93-4-5l-2-2c.567 4.13.567 4.13 2 8-2.383-.953-3.731-1.562-5.094-3.781-.977-2.391-1.305-4.401-1.531-6.969l-.227-2.422L25 84h-3c-1.324-6.621-.522-12.294.625-18.926.602-3.108.602-3.108-.625-6.074l-7 2c0-3.909.181-6.027 2.742-9.07l4.316-4.098c4.514-4.26 5.293-7.849 5.535-13.844C28 32 28 32 31 30c.366-3.355.366-3.355.188-7.125l-.082-3.883L31 16c-2.701 0-5.716 3.847-7.586 5.539zM56 16l-3 6c2.238 3.261 2.238 3.261 5 6 3.542.417 3.542.417 7 0l4 1-7-13h-6zm36 2l-.184 2.738-.254 3.574-.246 3.551C91 31 91 31 90 34l1.797 2.695c2.476 3.715 3.44 6.895 4.453 11.18l.523 2.086L98 55l4-2c-.952 6.8-.952 6.8-1.75 10.125-.311 3.577.661 5.034 2.75 7.875l4-1c-.125 1.875-.125 1.875-1 4-3.062 1.25-3.062 1.25-6 2l-.184 2.266-.254 2.984-.246 2.953A41.3 41.3 0 0 1 98 91l4 1c8.425-12.441 11.67-25.126 10-40-2.609-13.458-9.221-24.509-19-34h-1zM39 32c-4.092 4.244-6.969 8.46-9 14h2l-.437 1.871C29.683 56.448 29.149 63.626 32 72h1l.48-3.734C35.748 51.754 40.709 37.619 52 25c-4.725 0-9.368 4.264-13 7zm33-4c1.506 4.14 3.518 7.744 5.813 11.5l2.02 3.344C82.349 46.509 84.959 49.979 89 52c-1.59-4.035-3.282-8.018-5-12l2-1c-5.175-6.475-5.175-6.475-12-11h-2zm-16 5c-2.345 3.518-2.58 4.858-2 9 1.917 3.083 1.917 3.083 5 5 4.292.151 6.221-.337 9.5-3.125 1.978-3.791 1.631-5.803.5-9.875-1.588-2.383-2.691-2.886-5.375-3.875-3.444-.164-4.907.818-7.625 2.875zm16 3c-.666 3.026-1.1 5.896-1 9 1.848 2.77 1.848 2.77 5 5l4.438 4.125c4.396 3.857 7.924 6.728 13.938 7.063L97 61l-1.562-.75L93 59l-3.324-1.68c-3.927-2.257-6.297-5.062-8.926-8.695l-1.273-1.672C76.88 43.475 74.829 39.931 73 36h-1zm-25 8c-8.251 12.534-8.251 12.534-10 27 .907 2.833 1.923 5.59 3.027 8.352C41 82 41 82 41.445 84.672c.77 3.233 2.688 4.433 5.398 6.188C53.334 94.293 59.831 96.05 67 94c6.864-2.346 11.22-5.396 15.688-11.187C84.625 78.66 85.338 74.512 86 70l.438-2.18c.39-2.317.39-2.317-.437-5.82-1.998-2.043-4.113-3.577-6.469-5.191-3.389-2.421-6.13-5.303-9-8.305C69.239 46.883 69.239 46.883 68 47c-.103 5.126-.036 9.95 1 15l-2 1 2 6c-3.349-1.083-5.323-2.27-8.062-4.562-2.593-2.54-2.593-2.54-5.062-2.875-2.565-.769-3.609-2.31-4.992-4.531C49.091 52.91 48.599 48.426 48 44h-1zm-18 2l1 2zm65 37l-4 9 5-2v-7h-1zM76 94l-1 2 5 1 1-3h-5zm-33 1v3l6 1v-4h-6zm29 2l-2 10-5-2 2 8c5.38-.34 9.533-.686 14-4-1.233-5.765-1.233-5.765-5-10h-2v-2h-2zm12 0l-2 4h2l1-4h-1zm7 2l-1 4 4-2-1-2h-2zm-39 9l2 3h2l1-6c-1.968 0-3.505 1.843-5 3zm-14-2v3l5 1-1-3c-2.015-.733-2.015-.733-4-1z" fill="#c9c9cd"/><path d="M68 29c2.526 2.363 3.888 3.665 5 7l-1 6-3 1 .125-3.312c.196-3.776.196-3.776-2.125-6.687.375-2.187.375-2.187 1-4z" fill="#c1c1c1"/><path d="M87 51l4 2v2l-5 1-2-3h2l1-2z" fill="#dedddf"/></svg>